<svg width="153" height="42" viewBox="-8 -8 153 42" xmlns="http://www.w3.org/2000/svg"><path d="M6.27849e-05 24.9499L1.73517 0.336512H8.44824L7.78027 9.95113H16.6666L17.3346 0.336512H24.0477L22.3126 24.9499H15.5995L16.2675 15.3353H7.3811L6.71313 24.9499H6.27849e-05Z" fill="#ffffff"/><path d="M50.1214 13.0759C49.9283 15.752 49.2509 17.9954 48.089 19.8061C46.9272 21.6169 45.4368 22.983 43.6179 23.9044C41.7989 24.8258 39.8028 25.2865 37.6295 25.2865C35.3113 25.2865 33.2508 24.7857 31.4479 23.7842C29.645 22.7826 28.2603 21.3164 27.2936 19.3855C26.3269 17.4545 25.9427 15.095 26.1411 12.3067C26.3181 9.63065 26.9867 7.37922 28.147 5.55244C29.3072 3.72567 30.8041 2.34357 32.6376 1.40614C34.4711 0.468713 36.4826 0 38.672 0C40.9741 0 43.0229 0.504768 44.8185 1.5143C46.6221 2.52384 48.0041 4.00209 48.9643 5.94905C49.9325 7.89601 50.3182 10.2716 50.1214 13.0759ZM43.286 12.3067C43.3756 10.8966 43.2775 9.71077 42.9917 8.74931C42.7052 7.77983 42.2285 7.05072 41.5616 6.56198C40.894 6.06522 40.037 5.81685 38.9906 5.81685C37.7993 5.81685 36.7726 6.10529 35.9106 6.68216C35.0485 7.25904 34.3677 8.0883 33.8681 9.16995C33.3686 10.2516 33.0714 11.5536 32.9765 13.0759C32.8562 14.5021 32.9463 15.6879 33.2466 16.6333C33.555 17.5787 34.0498 18.2878 34.7312 18.7605C35.4207 19.2333 36.2806 19.4696 37.3109 19.4696C38.4861 19.4696 39.4974 19.1892 40.3449 18.6283C41.2005 18.0675 41.8748 17.2542 42.3678 16.1886C42.8689 15.123 43.175 13.829 43.286 12.3067Z" fill="#ffffff"/><path d="M76.3601 9.56655H69.647C69.6405 8.99768 69.559 8.48491 69.4023 8.02821C69.2456 7.57152 69.0147 7.17892 68.7094 6.85042C68.4033 6.51391 68.0204 6.25752 67.5607 6.08125C67.101 5.90498 66.5653 5.81685 65.9536 5.81685C64.7784 5.81685 63.7561 6.10929 62.8868 6.69418C62.0167 7.27106 61.3278 8.10032 60.8202 9.18197C60.3119 10.2556 60.0006 11.5375 59.8866 13.0278C59.8 14.47 59.9073 15.6678 60.2084 16.6213C60.5176 17.5747 61.0088 18.2878 61.6822 18.7605C62.3636 19.2333 63.2114 19.4696 64.2256 19.4696C64.9017 19.4696 65.5138 19.3895 66.0618 19.2292C66.6179 19.069 67.103 18.8407 67.5172 18.5442C67.9386 18.2397 68.2862 17.8792 68.56 17.4626C68.8411 17.0379 69.0415 16.5692 69.1611 16.0564H75.9225C75.7652 17.098 75.409 18.1636 74.8539 19.2533C74.298 20.3349 73.5408 21.3324 72.5824 22.2458C71.6232 23.1512 70.4622 23.8843 69.0996 24.4452C67.7369 25.006 66.1702 25.2865 64.3993 25.2865C62.0811 25.2865 60.0323 24.7817 58.2528 23.7722C56.4813 22.7626 55.124 21.2884 54.1806 19.3494C53.2454 17.4105 52.8689 15.0469 53.0511 12.2586C53.2427 9.56655 53.9149 7.31112 55.0679 5.49235C56.2209 3.67359 57.7029 2.3035 59.5138 1.3821C61.3247 0.460701 63.3007 0 65.4418 0C67.0597 0 68.529 0.212323 69.8497 0.636968C71.1785 1.06161 72.3209 1.68256 73.277 2.4998C74.2403 3.30903 74.9883 4.30655 75.5211 5.49235C76.0538 6.67816 76.3335 8.03622 76.3601 9.56655Z" fill="#ffffff"/><path d="M78.1815 24.9499L79.9166 0.336512H86.6296L85.9458 10.2876H86.2839L94.4052 0.336512H102.229L93.1424 11.2972L100.687 24.9499H92.6701L87.8211 15.7199L85.3506 18.6524L84.8945 24.9499H78.1815Z" fill="#ffffff"/><path d="M110.764 0.336512L109.029 24.9499H102.316L104.051 0.336512H110.764Z" fill="#ffffff"/><path d="M118.464 24.9499H111.22L121.117 0.336512H130.293L136.72 24.9499H129.475L125.343 7.11482H125.15L118.464 24.9499Z" fill="#ffffff"/><path d="M117.819 15.2392H131.438L131.05 20.2388H117.431L117.819 15.2392Z" fill="#ffffff"/></svg>