<svg width="300" height="243" viewBox="0 0 300 243" xmlns="http://www.w3.org/2000/svg">
<defs><clipPath id="cut" clip-rule="evenodd"><path d="M0,0H300V243H0Z M15.1884 198.88L20.1939 219.279L259.83 123.229L254.824 102.83L249.819 82.4312L10.1829 178.481L15.1884 198.88Z" fill-rule="evenodd"/></clipPath></defs>
<g clip-path="url(#cut)"><path d="M88.7072 28.1238C89.4966 24.8372 92.5304 22.5497 95.917 22.6878L111.484 23.3222L125.909 23.9103C130.311 24.0898 133.408 28.2098 132.345 32.4738L87.2329 213.518C86.4469 216.672 83.5857 218.902 80.3248 218.902L51.6703 218.902C47.1686 218.902 43.8841 214.753 44.9319 210.39L88.7072 28.1238Z" fill="#0b0b12"/><path d="M175.27 31.1397C176.053 27.8456 179.091 25.55 182.483 25.6883L198.036 26.3222L212.461 26.9103C216.864 27.0898 219.96 31.2098 218.898 35.4738L173.843 216.287C173.031 219.546 170.012 221.803 166.647 221.665L138.708 220.527C134.336 220.349 131.244 216.281 132.254 212.036L175.27 31.1397Z" fill="#0b0b12"/></g>
<path d="M33.9783 172.97C27.0528 175.742 22.6681 183.014 24.1848 189.212C25.7015 195.409 32.5451 198.187 39.4706 195.414L36.7245 184.192L33.9783 172.97ZM214.576 113.002L217.323 124.224L214.576 113.002ZM248.422 81.3624L235.59 83.5149L235.574 84.0278L235.605 84.5311L248.422 81.3624ZM218.975 65.9862C213.09 70.8398 211.524 78.6231 215.477 83.3706C219.429 88.1182 227.405 88.0322 233.29 83.1786L226.133 74.5824L218.975 65.9862ZM36.7245 184.192L39.4706 195.414L217.323 124.224L214.576 113.002L211.83 101.78L33.9783 172.97L36.7245 184.192ZM214.576 113.002L217.323 124.224C228.114 119.905 238.689 114.242 246.778 107.106C255.071 99.7911 261.932 89.7164 261.239 78.1937L248.422 81.3624L235.605 84.5311C235.659 85.4384 235.479 87.2287 231.602 90.6488C227.521 94.2481 220.8 98.1899 211.83 101.78L214.576 113.002ZM248.422 81.3624L261.253 79.2098C261.56 69.2278 256.843 60.8966 247.515 58.1064C238.309 55.3526 227.584 58.8865 218.975 65.9862L226.133 74.5824L233.29 83.1786C234.478 82.1993 235.271 81.8939 235.566 81.8088C235.845 81.7284 235.78 81.8057 235.547 81.7359C235.303 81.6629 235.237 81.5365 235.286 81.6145C235.347 81.7104 235.63 82.2294 235.59 83.5149L248.422 81.3624Z" fill="#0b0b12"/><path d="M251.99 179.67C260.727 179.67 267.81 172.587 267.81 163.85C267.81 155.113 260.727 148.03 251.99 148.03C243.253 148.03 236.17 155.113 236.17 163.85C236.17 172.587 243.253 179.67 251.99 179.67Z" fill="#0b0b12"/></svg>